<?xml version="1.0" encoding="UTF-8" standalone="no"?>
<!DOCTYPE svg PUBLIC "-//W3C//DTD SVG 1.1//EN" "http://www.w3.org/Graphics/SVG/1.1/DTD/svg11.dtd">
<svg width="100%" height="100%" viewBox="0 0 415 388" version="1.1" xmlns="http://www.w3.org/2000/svg" xmlns:xlink="http://www.w3.org/1999/xlink" xml:space="preserve" xmlns:serif="http://www.serif.com/" style="fill-rule:evenodd;clip-rule:evenodd;stroke-linejoin:round;stroke-miterlimit:2;">
    <g transform="matrix(1,0,0,1,-333.340466,-490.983402)">
        <g transform="matrix(1,0,0,1,325,483)">
            <path d="M209.927,243.5C210.008,378.808 210.755,378.755 210.017,390.492C209.486,398.943 204.236,395.579 180.281,380.863C143.837,358.474 12.73,280.783 10.698,278.341C7.784,274.839 8.464,274.271 8.397,223.5C8.383,212.86 8.229,95.907 8.497,90.5C8.886,82.637 16.496,88.665 40.398,99.724C205.632,176.173 208.455,173.791 209.754,179.439C210.903,184.433 209.983,184.497 209.927,243.5ZM150.072,274.52C149.757,271.531 146.705,233.7 145.675,216.492C143.516,180.388 143.35,179.674 140.56,178.378C138.28,177.318 119.612,168.498 119.509,168.458C117.165,167.552 118.267,169.398 117.794,172.544C117.269,176.037 116.545,180.858 113.998,216.541C108.602,292.145 107.175,291.942 107.159,298.524C107.15,302.048 123.022,308.776 123.589,308.65C124.673,308.408 124.462,294.982 125.458,286.489C125.532,285.858 125.985,284.316 133.264,287.971C138.318,290.507 134.091,314.766 137.839,317.02C138.995,317.716 151.507,325.241 152.526,325.324C156.581,325.657 152.042,322.617 150.072,274.52ZM133.055,248.528C134.178,261.267 134.659,263.86 131.474,262.576C123.646,259.422 126.357,256.924 127.083,245.465C129.627,205.262 128.852,201.719 131.037,203.848C131.361,204.163 131.344,223.135 132.252,236.516C133.003,247.596 133.006,247.526 133.055,248.528ZM70.061,163.534C68.983,143.623 67.978,143.381 65.612,142.271C49.584,134.75 46.933,132.444 46.879,135.547C46.876,135.736 46.868,264.963 46.927,266.476C47.04,269.381 52.401,271.35 57.264,273.978C62.536,276.827 61.145,272.698 61.142,270.498C61.061,203.316 60.415,203.342 60.528,197.503C60.532,197.28 62.081,183.854 62.475,195.507C62.7,202.166 62.829,205.991 69.497,278.5C69.793,281.719 78.467,285.521 79.245,285.103C80.885,284.223 87.43,205.912 87.689,205.669C89.443,204.021 89.291,209.18 89.281,209.513C89.095,215.831 87.575,267.371 88.255,288.516C88.3,289.902 88.332,290.887 102.611,298.227C104.804,299.354 104.909,297.218 104.912,267.5C104.919,162.09 105.142,161.683 104.1,160.942C103.409,160.451 83.641,151.215 83.529,151.209C80.487,151.031 80.187,173.454 78.791,181.555C75.778,199.043 77.306,215.584 74.743,214.17C74.285,213.918 72.165,180.591 70.061,163.534ZM40.902,151.5C40.862,132.098 41.726,130.738 38.273,128.962C26.627,122.973 26.467,123.017 25.382,123.317C24.79,123.48 24.813,128.083 24.815,128.5C25.095,185.139 24.016,254.812 25.572,256.433C26.685,257.592 39.226,264.327 39.514,264.336C41.885,264.411 40.645,262.583 40.902,151.5ZM196.968,278.5C196.965,271.176 197.589,264.47 195.531,263.448C178.098,254.784 177.419,254.119 176.598,255.54C176.561,255.604 176.447,273.782 176.607,277.489C176.763,281.126 181.513,279.206 181.544,284.5C181.711,313.711 180.854,313.99 179.247,315.126C177.948,316.043 172.18,317.628 172.328,296.499C172.756,235.173 170.685,217.43 175.489,216.455C182.672,214.997 181.083,237.29 181.228,238.542C181.553,241.343 195.745,246.433 196.322,246.162C198.227,245.263 199.701,207.847 180.246,195.901C151.833,178.457 155.688,220.309 155.64,239.5C155.51,291.246 151.259,331.725 179.475,341.575C200.161,348.796 196.972,319.727 196.968,278.5ZM322.051,143.503C322.039,143.05 321.484,132.285 322.638,130.584C324.443,127.926 351.35,116.732 351.472,116.741C353.524,116.883 352.75,118.371 352.798,304.499C352.8,313.516 354.967,315.256 347.2,320.004C339.893,324.471 339.961,324.411 332.757,328.926C327.091,332.477 323.617,336.674 322.39,330.524C317.447,305.737 308.092,265.101 306.786,259.426C303.948,247.097 302.979,236.387 302.086,235.966C299.854,234.914 301.322,244.669 301.431,246.501C302.085,257.406 301.732,346.44 301.576,347.514C301.368,348.947 301.214,349.151 286.722,357.856C273.131,366.02 269.364,369.748 269.274,365.519C269.237,363.798 269.281,161.242 269.311,158.5C269.367,153.36 270.835,153.377 291.667,143.878C298.591,140.721 301.43,136.239 303.341,143.546C322.881,218.271 319.718,218.986 321.686,225.401C321.826,225.859 323.624,226.717 323.545,224.509C322.621,198.527 322.326,198.603 322.051,143.503ZM418.041,169.501C418.024,191.078 418.616,192.832 415.54,194.565C392.54,207.52 391.115,207.023 391.097,210.492C391.078,214.265 391.092,232.581 391.094,234.501C391.095,235.908 390.017,242.448 393.492,240.484C414.554,228.583 421.942,221.953 422.07,228.509C422.925,272.262 421.8,273.418 419.136,276.154C417.473,277.862 405.012,284.158 365.202,309.016C362.504,310.701 360.884,311.647 360.831,308.469C360.792,306.04 360.778,133.698 360.777,118.5C360.777,109.144 364.1,110.673 372.616,106.761C414.665,87.444 414.483,86.804 418.467,86.288C421.825,85.853 421.852,90.062 421.855,90.494C422.066,123.092 420.94,123.3 419.416,124.367C416.44,126.451 391.768,136.213 391.216,139.453C390.866,141.508 391.085,141.43 391.161,165.52C391.173,169.557 393.711,167.03 409.305,159.133C409.914,158.824 416.462,155.508 417.447,156.542C417.921,157.04 417.833,157.09 418.041,169.501ZM260.071,235.5C260.2,373.738 259.883,373.807 259.362,374.383C259.197,374.566 227.559,395.427 224.513,395.273C220.872,395.089 221.561,393.051 221.742,351.501C221.803,337.591 222.494,179.158 222.915,177.625C223.401,175.852 223.751,174.578 242.669,165.866C258.13,158.745 259.389,158.305 259.841,160.361C261.132,166.232 260.213,166.299 260.071,235.5ZM311.515,38.43C330.105,45.333 332.764,46.511 334.571,47.312C353.527,53.386 379.645,62.937 383.541,64.362C395.036,69.02 395.178,68.446 406.586,73.256C410.249,74.8 412.033,73.951 411.128,76.301C410.608,77.654 409.548,76.029 394.474,83.437C386.942,87.139 310.949,121.058 238.703,155.891C236.981,156.772 219.769,165.585 216.501,165.475C214.533,165.408 137.886,129.287 128.567,125.359C122.766,122.913 123.097,122.379 117.255,119.917C110.688,117.668 111.173,116.741 106.185,114.962C100.783,113.102 81.18,103.154 78.176,101.942C76.091,101.302 53.786,90.582 49.35,88.809C36.789,83.376 37.51,81.837 24.429,77.688C24.197,77.614 19.83,76.229 23.625,74.76C67.721,57.682 68.156,59.073 112.588,42.729C134.849,34.54 153.781,28.243 157.384,27.045C164.691,24.03 180.771,19.3 188.367,16.076C188.615,16.025 188.566,16.012 191.448,15.31C214.625,6.408 215.21,7.107 224.441,9.685C225.905,10.094 234.223,12.418 242.639,15.156C255.075,19.513 255.175,19.009 267.576,23.309C286.018,29.265 286.926,29.641 288.561,30.319C288.702,30.377 288.699,30.369 291.648,31.236C295.286,32.431 306.353,35.591 311.515,38.43ZM282.481,132.384L283.617,132.5C283.542,132.186 284.142,131.958 284.068,131.644C283.989,131.309 281.918,129.655 281.584,129.976C281.221,130.326 281.596,131.098 281.233,131.447C281.159,131.741 280.958,131.993 280.884,132.287C280.649,133.225 280.7,133.331 280.74,133.413C281.344,134.658 281.308,133.077 282.481,132.384ZM290.491,33.479C286.891,35.916 286.765,35.774 284.421,39.453C283.592,40.753 283.977,41.083 285.552,41.353C293.553,42.719 300.514,44.634 302.424,45.07C306.537,42.907 306.48,42.955 310.493,40.497C309.307,39.894 304.88,37.291 290.491,33.479ZM245.185,87.434C246.36,79.528 247.775,78.019 244.496,77.533C236.786,76.39 233.362,75.268 233.208,77.414C233.063,79.436 233.113,81.469 232.968,83.491C232.215,95.675 231.679,96.135 232.684,96.357C233.532,96.544 233.548,96.359 243.482,97.483C244.37,92.463 244.341,92.564 245.185,87.434ZM189.051,88.621C189.145,89.253 190.166,96.105 190.526,96.473C191.667,97.638 200.264,96.192 201.099,96.052C202.173,95.871 201.039,85.787 201.018,85.497C200.379,78.134 200.408,78.179 200.328,77.545C200.089,75.675 199.16,76.106 188.538,77.637C185.974,78.007 188.386,85.406 189.051,88.621ZM261.464,141.54C261.753,141.682 261.51,142.305 261.799,142.447C261.923,142.507 261.894,142.369 263.141,141.363C263.14,141.171 264.747,140.832 263.133,139.776C261.692,138.835 261.634,139.815 261.464,141.54ZM218.185,84.537C218.189,89.647 217.495,96.022 219.62,96.096C227.792,96.381 227.777,96.439 228.486,96.449C230.236,96.476 230.092,90.159 230.403,85.483C230.439,84.71 230.837,76.035 230.214,75.804C229.442,75.518 229.423,75.638 219.604,74.954C217.374,74.799 218.184,82.605 218.185,84.537ZM272.381,93.438C272.976,91.92 277.294,83.769 274.279,82.977C265.284,80.615 264.958,80.898 264.617,81.6C264.295,82.261 264.427,82.253 262.048,90.422C260.481,96.135 258.571,100.1 261.414,100.743C268.611,102.37 269.237,102.377 269.832,100.647C271.077,97.024 271.076,97.129 272.381,93.438ZM138.117,101.854C143.254,109.968 143.754,109.783 144.501,109.506C144.982,109.328 150.183,107.402 150.055,106.319C149.92,105.172 146.213,98.025 145.847,97.319C142.053,90.784 141.929,88.794 137.626,90.807C135.47,91.815 130.689,92.183 134.232,96.708C135.553,98.394 137.81,101.44 138.117,101.854ZM179.607,110.472C180.939,115.906 180.726,116.005 181.356,116.644C181.873,117.168 182.007,116.982 190.482,115.481C192.744,115.081 191.231,114.03 189.929,107.505C189.702,106.412 189.989,105.816 188.659,101.404C188.324,100.295 187.67,99.894 179.515,101.554C177.331,101.999 177.683,102.884 179.607,110.472ZM184.044,65.723C184.033,65.804 184.071,65.895 184.122,65.989L184.286,66.549C184.661,68.086 185.796,75.16 187.562,75.122C188.449,75.102 188.394,75.038 198.576,73.76C201.222,73.428 199.017,63.73 198.847,62.47C198.286,57.74 198.804,57.707 197.313,53.697C182.061,55.55 180.853,55.613 181.435,57.511C182.055,59.533 182.145,59.433 182.785,61.418C182.908,61.8 182.898,61.8 184.044,65.723ZM294.712,102.699C300.808,95.653 300.692,95.283 300.454,94.519C300.303,94.039 293.199,90.373 292.537,90.212C290.666,89.757 287.588,96.526 286.47,98.487C284.093,103.262 284.088,103.222 283.903,103.645C281.619,108.872 284.701,108.531 287.303,109.912C289.735,111.204 289.981,109.998 294.712,102.699ZM242.208,108.432C243.109,103.872 243.869,103.965 243.347,99.568C232.198,99.186 232.225,99.166 232.175,99.216C231.821,99.573 232.14,99.648 231.663,105.493C231.232,112.149 230.032,114.213 233.487,114.607C240.92,115.454 240.949,115.24 241.014,115.157C241.456,114.59 241.279,114.518 242.208,108.432ZM203.355,84.53C204.1,90.962 203.805,90.877 204.12,94.62C204.191,95.463 204.279,96.512 214.627,95.879C216.297,95.777 215.675,87.887 215.652,84.518L215.644,78.505C215.461,75.75 215.567,75.735 215.447,75.529C214.568,74.021 214.06,74.976 207.491,75.39C207.19,75.424 203.031,75.421 202.789,76.639C202.665,77.26 202.769,77.242 203.355,84.53ZM283.703,98.63C286.962,92.577 290.32,89.081 287.356,87.773C286.642,87.458 279.052,83.295 277.94,85.795C277.636,86.479 277.758,86.512 274.566,94.52C272.53,100.648 269.224,102.845 275.346,104.874C278.688,105.981 279.71,107.574 281.134,104.322C282.391,101.452 282.31,101.536 283.703,98.63ZM259.109,91.402L260.671,85.544L260.848,84.969C260.909,84.865 260.953,84.767 260.933,84.691C261.692,82.203 261.99,80.994 261.558,80.455C261.127,79.916 261.036,80.121 255.525,79.217C251.477,78.553 250.07,76.624 248.886,80.553L247.696,87.528C246.724,93.985 245.198,97.931 247.57,98.323C255.664,99.659 255.766,99.969 256.585,99.623C257.413,99.273 257.098,98.974 259.109,91.402ZM148.621,97.431C149.122,98.516 152.168,106.102 153.526,105.744C154.228,105.559 161.94,103.525 161.555,101.499C161.131,99.269 160.936,99.37 158.603,93.471C157.406,90.665 155.236,83.989 153.502,84.525C151.479,85.15 143.259,87.586 144.181,89.565C145.126,91.592 148.25,96.811 148.621,97.431ZM174.099,89.694C175.103,93.229 175.451,99.628 179.429,99.013C187.672,97.738 187.711,97.248 187.765,96.555C187.856,95.395 186.08,87.275 185.905,86.474C184.718,79.723 185.686,78.676 183.524,78.411C181.952,78.218 174.424,79.759 173.641,79.919C170.135,80.636 172.427,84.089 174.099,89.694ZM161.437,129.533C163.382,135.658 163.676,139.268 166.544,138.763C174.97,137.282 171.597,133.742 169.198,125.55C168.471,123.115 169.028,122.411 167.529,122.371C166.936,122.355 166.954,122.463 161.563,124.605C158.716,125.737 160.598,126.655 161.437,129.533ZM254.333,110.429C255.948,104.222 256.516,102.642 254.622,102.22C253.983,102.078 247.001,100.524 246.473,101.478C246.228,101.922 246.356,101.931 244.882,107.61C244.007,112.129 241.798,114.461 247.452,115.729C251.437,116.623 252.725,117.444 253.614,113.524C253.97,111.952 253.963,112.023 254.333,110.429ZM161.323,93.596C163.809,100.444 163.639,100.499 163.912,101.069C164.46,102.214 170.056,100.892 170.575,100.769C175.617,99.578 173.406,97.285 171.353,89.527C169.154,82.527 169.305,82.487 168.614,81.39C168.188,80.713 167.904,80.263 158.747,82.996C156.178,83.763 160.81,92.356 161.323,93.596ZM260.166,28.878C255.034,28.584 246.423,27.885 240.556,27.669C240.131,27.653 238.91,27.416 237.966,34.53C237.577,37.461 246.087,36.232 256.549,37.755C259.086,38.124 260.543,31.252 261.192,29.516L260.166,28.878ZM382.325,66.555C381.388,66.049 381.433,66.091 380.372,65.773C372.298,63.357 360.392,58.58 358.573,58.854C357.386,59.032 347.686,64.596 347.67,64.616C346.868,65.611 347.868,65.774 361.424,72.729C362.91,73.028 362.802,73.102 364.398,73.053C380.626,67.52 380.826,68.115 382.124,67.385C382.372,67.246 382.076,66.694 382.325,66.555ZM160.679,61.381C159.493,60.006 159.348,59.85 156.518,60.58C155.705,60.789 149.51,62.386 146.392,63.329C145.078,63.727 145.253,64.126 145.999,65.284C155.48,80.009 154.968,80.675 156.459,80.825C157.097,80.889 166.898,78.469 167.099,78.315C168.262,77.431 161.298,62.691 160.679,61.381ZM156.255,115.618L158.34,120.579C159.802,124.069 160.877,122.142 163.709,120.984C169.086,118.785 166.449,117.023 164.697,111.464C163.207,107.024 163.741,105.05 160.409,106.233C159.874,106.423 154.111,108.469 154.049,109.399L156.255,115.618ZM271.781,61.645C270.492,64.867 264.614,77.869 266.444,78.564C267.325,78.899 276.732,82.476 278.118,80.088C280.186,76.524 279.828,76.45 281.948,72.804C286.7,64.633 288.626,63.753 286.284,62.93C285.027,62.489 278.194,60.731 277.488,60.55C274.217,59.708 273.44,58.69 271.781,61.645ZM367.625,75.416C374.7,79.629 374.7,79.466 375.264,79.893C379.223,82.89 379.776,81.479 391.399,79.245C397.125,78.17 403.516,75.748 403.616,75.572C404.39,74.213 387.846,67.603 385.474,68.412C368.66,74.145 368.538,74.184 367.625,75.416ZM195.157,120.591C195.214,121.353 195.825,129.484 195.948,130.11C196.198,131.381 201.089,130.689 201.533,130.626C205.423,130.075 203.816,123.136 203.645,120.528C203.431,117.728 204.264,116.439 201.483,116.607C196.869,116.886 194.828,115.954 195.157,120.591ZM300.549,47.5C291.398,43.877 281.91,43.227 281.558,43.564C280.935,44.159 273.226,56.618 274.726,57.382C275.439,57.745 275.434,57.387 284.423,59.819C288.015,60.79 288.674,61.867 290.977,58.878C291.703,57.935 293.074,56.157 300.549,47.5ZM253.351,59.455C251.501,67.64 248.894,75.187 251.364,75.806C262.411,78.573 262.797,78.058 263.177,77.186C263.676,76.04 263.326,75.921 268.558,62.523C269.547,59.99 271.189,58.903 268.514,58.468C262.463,57.484 262.583,57.361 256.496,56.552C253.279,56.124 253.939,57.975 253.351,59.455ZM266.241,112.37C267.987,106.552 269.632,105.873 267.366,104.68C266.186,104.059 260.177,102.836 259.545,102.707C258.135,102.42 257.864,105.934 257.23,108.473L257.096,109.063C257.015,109.214 256.953,109.356 257.011,109.436C255.304,116.951 255.17,116.963 255.351,117.562C255.616,118.439 261.943,120.007 262.536,120.154C263.97,120.509 263.722,119.666 266.241,112.37ZM325.496,57.51C322.161,56.376 322.026,57.5 314.534,63.538C310.197,67.033 306.297,68.397 311.297,70.871C321.201,75.771 321.553,76.579 324.591,74.657C330.734,70.773 330.753,70.912 340.293,65.395C339.873,64.895 340.1,64.641 325.496,57.51ZM92.771,66.332C110.586,75.63 110.616,76.634 112.566,75.691C122.185,71.041 124.52,70.084 122.117,67.916C110.26,57.223 109.773,57.295 108.532,57.837C96.309,63.171 93.839,65.378 92.771,66.332ZM149.439,44.723C145.382,45.988 134.198,47.716 132.994,48.656C132.038,49.403 132.409,49.922 142.541,60.453C144.424,62.41 158.049,57.474 158.084,57.403C158.141,57.288 153.914,47.466 149.439,44.723ZM271.574,128.539C272.754,125.752 273.07,124.934 270.272,123.925C269.902,123.791 266.182,122.45 265.536,122.578C264.356,122.812 264.877,123.238 264.353,126.504C264.092,127.331 261.253,136.311 262.827,137.244C269.897,141.434 269.464,136.451 271.574,128.539ZM303.449,122.745C312.888,117.978 311.845,116.522 320.577,110.602C323.031,108.939 321.224,104.801 317.86,107.84C314.102,111.233 313.694,110.605 310.1,114.086C306.256,117.808 306.507,117.956 302.488,121.5C302.484,121.83 301.971,122.011 301.967,122.341C301.955,123.385 302.365,123.497 302.464,123.524C303.178,123.719 302.7,122.541 303.449,122.745ZM172.216,126.639C174.751,134.013 174.472,134.359 175.428,134.641C176.588,134.984 176.508,134.665 179.591,133.898C183.041,133.039 182.659,131.733 180.392,124.519C179.992,123.287 179.852,120.047 177.505,120.264C170.725,120.89 171.426,123.117 172.216,126.639ZM250.827,58.58C250.882,58.356 251.435,56.088 251.104,55.712C251.04,55.641 236.114,53.424 235.641,53.66C234.656,54.151 233.525,73.06 233.753,73.312C233.838,73.406 245.547,75.174 246.31,75.121C247.678,75.026 247.489,74.46 250.827,58.58ZM218.287,106.527C218.555,111.635 218.334,111.65 218.778,112.215C219.241,112.804 224.079,113.137 224.545,113.169C230.293,113.564 229.13,110.804 229.44,106.496C229.433,105.822 229.796,100.108 228.764,99.229C228.251,98.791 221.169,98.61 220.507,98.594C217.123,98.507 218.326,103.935 218.287,106.527ZM218.114,61.52C218.117,62.637 217.828,72.087 218.749,72.263C230.536,74.51 230.82,72.568 230.961,71.599C233.497,54.217 233.006,53.577 231.563,53.357C224.022,52.207 220.408,52.275 219.435,52.293C217.427,52.33 218.117,61.002 218.114,61.52ZM320.354,55.479C319.275,54.733 316.587,52.872 305.493,48.541C304.338,48.09 303.103,47.608 293.978,58.912C290.227,63.558 294.747,63.32 296.44,63.834C301.382,65.337 304.846,69.497 307.184,67.064C313.272,60.727 313.956,61.629 320.354,55.479ZM179.747,60.411C179.331,59.422 179.057,58.377 178.641,57.387C177.842,55.487 163.494,59.435 163.46,59.472C162.434,60.571 163.348,60.712 169.986,77.096C170.772,79.038 181.341,76.262 182.298,76.011C184.859,75.338 182.094,67.98 179.747,60.411ZM302.501,92.483C303.872,91.341 319.533,78.291 319.124,77.61C319.115,77.595 307.413,70.532 305.768,71.967C305.627,72.09 293.208,85.899 293.471,87.507C293.558,88.036 293.721,87.895 302.501,92.483ZM192.291,105.553C193.886,113.084 193.837,113.046 194.014,113.687C194.393,115.056 194.944,114.934 202.297,114.104C204.049,113.906 202.943,106.202 202.908,105.521C202.25,99.816 202.983,99.095 201.361,98.757C200.91,98.664 194.112,99.334 193.483,99.396C190.625,99.678 191.036,100.863 192.291,105.553ZM281.217,79.355C279.13,83.605 282.02,82.962 286.411,84.714C286.79,84.866 290.647,86.404 291.459,85.453C292.46,84.282 303.62,71.223 303.594,70.499C303.57,69.848 291.469,62.741 289.418,65.409C286.608,69.063 281.817,78.208 281.217,79.355ZM145.555,84.627C151.727,82.439 151.723,82.441 152.217,82.161C154.561,80.833 143.96,66.471 143.333,65.682C142.539,64.684 142.026,64.241 131.747,68.941C129.44,69.997 128.145,70.31 129.887,72.2C135.66,78.463 135.611,78.376 140.834,85.098C141.654,86.153 141.911,85.513 145.555,84.627ZM359.185,74.345C358.674,73.95 345.175,65.801 342.334,67.126C341.24,67.637 326.532,75.913 325.913,76.686C324.905,77.941 326.386,77.703 334.641,82.018C337.376,83.448 337.521,82.112 359.185,74.345ZM128.471,49.877C120.717,52.867 120.943,53.309 112.922,55.547C112.925,55.901 112.464,56.153 112.468,56.507C112.469,56.668 124.64,67.166 125.706,68.085C126.772,69.004 126.947,68.225 138.51,63.521C141.825,62.173 139.929,60.954 136.634,57.378C131.039,51.305 131.238,51.052 128.471,49.877ZM64.598,74.428C48.358,70.013 48.116,67.834 39.384,71.202C38.98,71.358 27.982,74.621 29.689,76.297C31.335,77.913 40.513,79.453 41.48,79.615C52.484,81.177 52.925,82.385 57.419,79.367C61.183,76.84 61.264,77.195 65.294,75.316L64.598,74.428ZM215.583,55.499C215.142,50.687 213.282,51.757 208.503,52.517C202.302,53.503 200.096,52.961 200.381,55.497C200.534,56.861 202.206,71.754 202.445,72.534C202.724,73.449 203.064,73.995 214.395,72.343C215.835,72.133 215.364,66.722 215.583,55.499ZM332.062,49.361C328.202,46.245 314.001,42.081 313.41,42.138C312.649,42.211 307.484,45.122 307.382,45.425C306.498,48.057 308.35,47.104 311.519,48.461C322.317,53.087 322.366,54.312 325.316,53.025C326.08,52.559 326.027,52.61 332.062,49.361ZM272.304,54.391C278.352,42.823 278.5,42.764 278.342,42.548C278.221,42.381 264.192,40.453 260.432,40.379C259.748,40.366 253.077,53.688 256.638,54.129C269.308,55.699 270.204,57.559 272.304,54.391ZM307.708,98.107C306.047,97.363 304.444,94.277 300.854,98.793C291.103,111.057 291.312,111.786 292.274,112.668C294.678,114.874 295.082,116.62 297.214,114.172C303.055,107.463 302.903,107.457 309.243,101.275C311.54,99.035 308.48,98.521 307.708,98.107ZM90.495,64.468C104.737,56.411 105.449,57.577 106.317,56.455C107.045,55.516 99.235,50.688 96.487,51.432C94.952,51.848 84.598,54.652 77.604,57.65C76.398,58.167 76.561,58.691 77.673,59.281C87.358,64.424 89.389,64.452 90.495,64.468ZM339.872,84.538C344.537,87.335 346.629,89.102 348.517,88.669C350.568,88.198 373.69,82.897 374.055,82.383C374.229,82.137 364.6,75.068 361.424,76.171C344.034,82.21 341.486,83.635 339.872,84.538ZM85.457,65.531C82.493,64.086 82.531,64.031 82.271,63.913C75.426,60.788 75.424,58.55 68.377,61.173C53.399,66.748 48.076,67.223 52.404,68.651C68.604,73.993 70.948,72.971 72.442,72.319C82.737,66.754 85.27,67.219 85.626,66.528C85.78,66.228 85.303,65.831 85.457,65.531ZM171.195,41.904C167.462,42.677 158.418,42.943 153.758,44.495C160.808,57.005 161.266,56.956 162.468,56.829C163.587,56.71 171.425,55.879 176.301,54.281C178.199,53.66 172.915,43.529 171.195,41.904ZM349.283,91.459C349.981,93.429 349.928,93.397 350.947,95.233C353.35,99.562 370.085,91.924 376.28,89.017C380.463,87.053 377.433,83.983 375.499,84.482C357.723,89.069 357.293,87.606 349.283,91.459ZM79.476,96.452C82.218,92.427 85.279,90.672 80.576,89.257C78.765,88.713 70.224,86.145 57.508,84.119C54.59,83.654 53.04,87.586 55.369,88.711C68.964,95.278 69.676,94.572 79.476,96.452ZM166.412,30.573C164.799,30.491 154.182,29.95 146.415,33.375C144.635,34.16 148.467,40.142 152.399,41.989C161.46,40.794 161.375,40.798 170.411,39.485C168.398,35.001 168.468,35.041 166.412,30.573ZM270.439,28.94C264.777,29.161 264.809,29.131 264.461,29.461C263.703,30.179 261.555,35.886 261.34,36.46C260.819,37.844 261.617,38.719 279.441,40.208C280.206,40.272 281.15,40.351 286.151,33.354C288.699,29.789 271.743,29 270.439,28.94ZM126.432,47.513C122.561,44.427 122.864,44.05 120.538,43.399C117.766,42.622 101.66,49.216 101.501,49.5C101.071,50.268 101.725,50.067 104.449,51.582C108.813,54.01 108.978,55.6 113.387,53.27C119.998,50.511 119.936,50.605 126.432,47.513ZM326.978,55.45C334.645,59.672 334.874,59.1 342.519,63.443C343.532,63.54 345.273,63.708 354.088,58.162C355.3,57.4 354.127,56.587 337.678,51.008C333.141,49.469 327.643,54.804 326.978,55.45ZM218.269,37.347C218.236,38.323 217.868,49.055 218.446,49.55C219.497,50.452 230.479,50.798 231.53,50.831C234.876,50.937 233.296,48.971 234.694,38.422L232.436,37.962C227.493,37.695 220.444,37.272 219.401,37.209L218.269,37.347ZM335.413,86.256C334.75,86.616 312.802,98.111 315.96,100.182C322.26,104.314 322.499,100.454 333.703,94.915C342.568,90.532 345.531,90.47 343.05,88.988C339.405,86.81 339.602,86.051 335.413,86.256ZM121.59,95.727C126.295,93.431 127.099,93.929 127.074,92.396C127.06,91.535 115.152,81.915 111.471,79.577C110.51,78.966 110.477,79.502 102.693,82.89C100.592,83.805 101.301,84.762 103.322,85.782C114.294,91.316 117.381,96.416 121.59,95.727ZM348.349,95.572C347.071,93.154 347.184,93.17 347.06,92.974C346.166,91.564 345.239,91.012 327.746,100.877C323.568,103.234 320.95,103.341 323.741,107.262C324.935,108.938 331.821,104.02 342.678,99.966C346.924,98.38 349.894,99.754 348.349,95.572ZM228.783,118.509C228.67,116.673 229.274,115.897 227.407,115.785C220,115.343 220.077,115.262 219.438,115.276C218.291,115.301 217.653,115.73 218.241,129.572C218.27,130.238 218.297,130.873 226.416,131.188C228.199,131.257 227.391,130.226 228.783,118.509ZM87.525,67.783C86.957,68.067 83.127,69.982 80.344,71.155C77.114,72.516 76.636,71.789 74.469,74.523C94.415,80.674 94.617,82.677 98.414,82.207C107.072,78.054 107.514,78.318 107.481,77.501C107.468,77.198 92.415,67.119 87.525,67.783ZM237.573,148.635C239.404,142.233 238.306,142.115 239.152,135.548C239.649,131.684 237.303,133.584 231.577,133.087C231.156,133.051 228.96,131.369 228.931,135.498C228.881,142.446 228.339,148.006 230.578,148.148C231.137,148.183 236.086,148.497 237.573,148.635ZM98.427,85.735C97.694,85.679 95.512,85.511 89.762,88.778C88.07,89.74 91.55,89.847 105.24,96.943C110.747,99.798 111.023,102.429 116.186,99.057C118.558,97.508 115.772,95.55 98.427,85.735ZM86.68,87.868L90.599,85.699C97.151,82.776 89.302,82.539 74.621,77.197C68.037,74.801 67.988,76.643 61.154,80.04C55.428,82.887 62.245,82.477 68.442,83.773C81.43,86.491 84.302,88.752 86.68,87.868ZM131.651,90.864C135.601,88.98 138.731,87.759 138.571,86.495C138.307,84.411 127.421,72.823 126.591,72.357C125.77,71.896 125.339,71.654 115.692,76.81C112.982,78.258 114.825,79.057 117.3,80.779C126.959,87.5 127.24,91.689 131.651,90.864ZM214.728,26.332C210.084,26.189 207.528,26.047 195.536,27.55C194.898,27.63 194.332,27.981 196.42,35.54C196.849,37.094 206.579,35.412 215.093,34.309C215.069,30.291 214.969,30.378 214.728,26.332ZM147.577,41.456C145.311,38.701 143.572,34.294 138.642,35.937C124.098,40.786 123.578,41.091 123.983,42.303C124.047,42.496 128.365,45.756 128.752,46.048C129.892,46.909 130.093,46.733 146.379,43.153L147.577,41.456ZM215.335,37.559C212.979,36.131 200.075,38.607 198.616,38.697C197.043,38.794 197.916,39.688 199.622,50.391C200.783,50.709 202.35,51.137 214.663,49.718C215.866,49.58 215.359,40.248 215.335,37.559ZM84.655,93.596C84.385,94.073 81.606,97.419 83.917,98.021C104.717,103.435 105.523,110.081 109.053,105.12C110.682,102.831 109.906,101.535 95.374,94.735C92.461,93.372 92.499,93.449 89.565,92.289C86.867,91.222 86.541,91.323 84.655,93.596ZM322.487,79.296C319.257,81.333 303.801,93.167 306.438,94.56C311.059,97.001 311.581,98.948 315.604,95.638C320.549,91.569 333.207,84.672 333.229,84.456C333.365,83.145 323.386,79.614 322.487,79.296ZM217.687,26.599C217.634,27.251 217.03,34.586 218.297,34.754C234.826,36.942 235.318,35.88 235.567,34.521C236.67,28.481 236.921,27.62 236.485,27.51C230.256,25.935 219.191,26.52 217.687,26.599ZM194.675,39.315C175.029,40.824 175.363,42.291 174.87,42.451C179.549,52.293 179.369,52.354 179.807,53.192C180.217,53.975 180.536,53.484 195.481,51.434C198.912,50.963 194.966,40.366 194.675,39.315ZM215.337,113.371C216.574,111.568 216.54,98.849 214.473,98.581C213.713,98.482 205.123,97.368 204.96,99.703C204.928,100.166 205.697,112.677 205.797,113.273C205.923,114.026 206.339,112.956 215.337,113.371ZM255.767,43.6C256.491,41.17 257.892,39.863 255.306,39.846C254.365,39.84 253.435,39.639 252.498,39.561C247.909,39.176 239.648,38.652 238.53,38.581C237.557,38.519 235.993,38.42 235.662,50.423C235.619,51.956 250.141,53.022 251.416,53.115C252.479,53.193 252.91,51.919 255.767,43.6ZM169.638,29.563C169.816,35.051 170.883,34.695 173.625,39.345C177.709,38.831 186.447,38.288 193.841,36.655C193.826,36.565 194.108,34.989 192.121,28.668C191.371,26.282 190.242,28.45 169.638,29.563ZM126.446,96.392C125.61,96.861 120.837,97.498 124.833,101.164C135.372,110.832 134.104,116.281 138.787,112.964C142.445,110.373 139.632,107.791 133.444,99.551C132.553,98.363 132.579,98.475 131.635,97.384C129.673,95.116 129.301,95.368 126.446,96.392ZM130.196,121.533C124.051,114.225 117.341,107.988 116.152,106.883C110.881,101.984 108.783,108.423 111.745,110.134C120.629,115.265 122.641,119.342 127.64,122.247C131.104,124.26 130.191,121.647 130.196,121.533ZM205.145,157.373C206.34,149.961 204.234,150.281 203.599,150.319C198.619,150.621 198.611,150.217 198.24,150.433C198.065,150.535 198.209,153.984 198.582,154.509C198.827,154.854 199.437,153.404 203.503,156.422C203.798,156.642 203.528,157.201 203.742,157.5C203.807,157.592 203.742,157.5 205.145,157.373ZM145.398,112.433C145.401,112.444 144.83,112.629 148.945,121.171C151.392,126.25 151.086,126.388 151.463,126.693C151.738,126.915 152.236,126.316 152.511,126.538C155.792,124.908 157.443,125.145 156.103,121.639C151.958,110.792 151.561,109.652 149.481,110.426C147.33,111.227 147.493,111.403 145.398,112.433ZM187.06,146.64C188.328,150.735 189.652,150.534 193.429,148.39C193.437,148.386 195.02,148.557 193.5,137.5C192.983,133.739 184.708,134.957 185.333,138.521C185.447,139.175 185.469,139.088 187.06,146.64ZM214.633,149.341L209.632,149.491C206.941,153.448 207.742,153.654 208.339,158.175C208.493,159.341 215.451,162.508 215.689,160.68C216.849,151.774 215.295,150.068 214.633,149.341ZM274.288,121.045C275.946,115.629 276.011,115.745 278.083,110.488C278.809,108.644 271.615,103.887 269.906,108.738C266.169,119.346 266.105,119.678 266.895,120.201C270.365,122.499 270.71,123.126 274.288,121.045ZM150.509,130.485C148.685,131.446 148.486,131.353 148.547,131.519C148.917,132.534 151.663,133.808 151.779,133.542C152.538,131.8 151.614,131.968 150.509,130.485ZM226.087,139.503C225.89,134.885 227.098,133.558 224.507,133.487C218.877,133.334 218.754,133.171 218.551,133.52C218.336,133.891 218.424,144.406 218.623,145.462C219.053,147.743 225.392,146.518 225.467,146.454C226.951,145.176 226.086,144.881 226.087,139.503ZM167.43,104.239C164.097,105.361 165.945,107.093 168.185,114.596C169.05,117.494 168.322,120.056 173.548,118.687C177.192,117.731 178.927,118.267 178.053,114.627C175.634,104.55 175.797,104.502 175.266,103.779C174.61,102.885 168.047,104.122 167.43,104.239ZM213.557,10.253C197.799,14.966 196.875,15.452 192.804,17.482L193.337,18.652C195.028,18.7 210.966,19.148 214.486,18.487C215.18,18.356 214.799,11.982 214.765,11.417C214.745,11.082 214.611,10.76 214.591,10.425L213.557,10.253ZM107.509,112.504C107.287,110.937 106.85,107.848 90.555,102.32C65.903,93.957 102.88,112.336 107.509,112.504ZM248.861,140.547C248.849,137.451 249.307,137.287 248.398,136.577C247.462,135.846 242.75,135.372 242.467,135.415C241.43,135.57 240.703,135.836 240.741,148.398C240.746,150.103 243.236,149.97 243.488,149.956C249.313,149.643 248.657,142.712 248.861,140.547ZM214.225,132.96C207.971,133.123 207.73,133.11 207.687,133.634C207.607,134.585 207.662,134.559 208.351,145.534C208.437,146.893 209.612,147.021 209.632,147.045L214.633,146.865C217.372,144.092 215.869,143.533 215.701,133.382L214.225,132.96ZM186.59,20.864C178.379,21.677 178.539,22.263 170.691,24.904C167.607,25.941 168.645,26.857 168.552,27.463C169.562,27.419 169.485,27.538 170.508,27.378C189.63,24.393 189.762,25.794 191.404,25.443C191.78,25.363 190.771,21.704 190.683,21.386C190.608,21.116 190.423,20.885 190.349,20.615L186.59,20.864ZM214.707,23.691C215.065,21.442 215.136,20.611 212.488,20.669C209.316,20.739 193.734,20.541 193.588,20.56C192.642,20.686 193.737,23.999 193.831,24.282C194.356,25.868 195.099,25.009 214.707,23.691ZM280.314,127.143C281.093,126.45 280.963,126.353 287.187,114.423C287.356,114.099 287.952,112.955 284.196,110.969C276.81,107.064 279.843,113.892 276.294,121.463C274.52,125.248 276.762,124.886 280.314,127.143ZM240.937,19.931C240.059,21.999 238.546,25.075 241.526,25.356C243.19,25.513 261.738,27.261 262.387,26.426C263.988,24.366 258.488,23.056 255.282,21.992C246.957,19.229 246.736,20.7 240.937,19.931ZM217.485,23.511C219.945,24.438 234.788,25.054 236.297,25.116C237.556,25.169 239.77,19.794 235.503,19.998C217.928,20.838 217.492,20.597 217.351,21.447C217.324,21.61 217.361,21.6 217.485,23.511ZM231.877,116.909C231.475,117.757 230.305,120.225 230.12,128.506C230.043,131.918 238.428,131.378 238.696,129.585C240.374,118.367 240.246,118.037 239.38,117.626C239.102,117.494 232.478,116.957 231.877,116.909ZM260.587,122.295C255.724,120.756 255.395,119.804 254.76,120.974C254.126,122.141 252.989,128.852 252.872,129.544C251.897,135.302 254.063,134.791 257.489,135.587C259.818,136.129 259.957,133.509 261.83,126.622C263.035,122.188 261.167,122.745 260.587,122.295ZM132.108,120.014C134.643,116.426 134.413,115.857 131.601,112.428C128.113,108.173 121.547,98.449 117.784,100.928C114.445,103.129 116.499,103.951 118.409,105.606C122.106,108.811 129.416,117.435 132.108,120.014ZM174.737,138.625C174.83,139.012 175.149,140.331 175.369,143.555L176.649,144.231C183.313,147.581 183.238,147.634 183.846,147.849C184.633,148.127 184.528,147.356 182.493,137.503C182.216,136.159 177.165,136.049 174.737,138.625ZM182.113,120.496C184.883,132.953 184.383,133.45 185.453,133.624C185.807,133.682 193.231,132.783 193.585,131.553C193.676,131.237 192.899,117.574 191.51,117.484C189.91,117.38 184.38,118.759 183.769,118.911C182.078,119.333 182.691,119.942 182.113,120.496ZM143.426,113.757C134.024,114.978 139.878,119.26 144.046,127.774C145.79,131.337 146.846,129.76 149.257,128.268L149.682,127.589C146.436,120.652 145.378,121.178 143.426,113.757ZM250.215,133.097C250.959,126.74 251.285,126.852 252.425,120.512C252.558,119.769 252.836,118.224 243.493,117.463C242.076,117.348 241.253,127.943 241.121,129.51C240.725,134.204 247.62,134.25 250.215,133.097ZM315.411,106.364C317.092,104.902 318.582,104.888 317.117,103.714C316.557,103.265 313.674,101.582 313.495,101.549C311.196,101.126 299.495,114.954 298.909,115.709C297.306,117.773 299.989,121.383 302.216,119.115C308.66,112.553 308.384,112.388 315.411,106.364ZM324.86,113.111C325.066,113.025 325.248,112.888 325.454,112.801C327.392,111.986 348.083,103.281 349.158,101.435C350.125,99.775 347.716,99.727 326.617,109.713C324.544,110.694 324.062,110.913 324.86,113.111ZM218.486,159.505C219.674,159.431 219.379,158.788 220.465,158.719C221.61,158.648 221.393,159.354 222.5,159.254C223.211,159.189 223.785,158.63 224.445,158.359C225.983,157.726 226.568,158.223 226.774,156.614C226.836,156.133 227.39,151.805 227.05,150.558C226.639,149.052 220.029,149.304 219.411,149.327C217.936,149.384 218.37,153.246 218.486,159.505ZM195.869,135.491C196.824,143.652 196.257,148.181 199.515,148.073C200.054,148.055 205.969,147.858 206.007,146.253C206.339,132.549 204.567,132.489 203.48,132.681C198.118,133.628 197.033,132.3 195.869,135.491ZM217.263,15.508C217.523,17.247 215.933,18.132 217.685,18.335C218.85,18.471 238.416,17.686 238.526,17.515C239.357,16.24 238.129,16.12 220.589,11.177C217.898,10.419 217.867,10.249 217.498,10.497L217.263,15.508ZM215.632,115.413C206.807,115.818 205.906,114.986 205.841,116.609C205.838,116.691 206.743,129.359 207.027,129.78C207.906,131.083 215.378,130.995 215.735,129.609C216.105,128.172 215.907,128.17 215.632,115.413ZM294.146,118.597C289.948,110.98 288.177,117.703 283.812,126.564C283.262,127.68 285.209,132.582 288.187,127.236C291.074,122.054 292.52,120.825 294.146,118.597ZM351.882,100.407C353.379,100.345 353.262,100.112 354.695,99.505C356.06,98.928 357.81,99.108 356.374,98.661C353.616,97.804 353.098,97.837 351.882,100.407ZM265.502,25.502C264.064,29.329 267.266,26.986 268.806,26.394C267.182,25.715 267.27,25.674 265.502,25.502ZM117.741,117.531C117.279,116.994 112.425,111.349 110.48,112.469C109.866,112.822 107.882,116.039 117.741,117.531ZM41.332,82.713C45.956,84.719 45.795,84.888 50.5,86.501C50.701,86.356 54.142,83.877 51.449,83.555C43.024,82.547 43.157,81.316 42.487,81.616C42.002,81.832 41.817,82.496 41.332,82.713ZM230.302,157.186C231.706,157.313 231.64,157.405 231.706,157.313C231.92,157.014 231.649,156.455 231.944,156.236C236.011,153.217 236.621,154.667 236.865,154.322C237.238,153.797 237.383,150.348 237.207,150.246C236.837,150.03 236.829,150.434 231.848,150.133C231.213,150.094 229.108,149.774 230.302,157.186ZM251.171,145.633L252.42,145.812C255.144,144.647 259.715,144.008 259.65,139.463C259.624,137.576 255.252,137.786 253.573,137.02C250.435,135.588 251.46,139.766 251.171,145.633ZM154.652,133.389C155.078,133.768 160.57,138.649 161.13,136.359C161.164,136.222 158.86,128.64 157.558,127.39C157.303,127.146 155.04,127.772 153.849,128.696C152.974,129.375 154.505,133.038 154.652,133.389ZM391.421,82.413C391.279,82.354 391.111,81.104 389.518,81.621C381.645,84.177 381.493,83.426 380.816,83.654C380.511,83.757 380.665,84.402 380.36,84.505C382.934,88.109 383.759,85.672 387.868,83.975C390.162,83.027 390.138,83.119 391.421,82.413ZM133.955,122.676C137.239,125.592 136.346,126.687 140.472,128.276C142.649,129.114 141.176,127.115 137.202,120.765C135.752,118.449 135.233,120.256 133.955,122.676ZM296.441,119.756C296.032,120.222 284.893,132.927 294.12,127.154C301.667,122.431 296.885,120.215 296.441,119.756ZM79.441,98.509C79.077,98.44 73.94,97.458 74.808,98.35L78.657,100.596C79.334,99.678 79.282,99.689 79.441,98.509ZM273.512,136.535C285.037,130.799 275.897,126.29 274.526,127.548C273.968,128.058 274.262,128.175 271.506,136.5C271.1,137.725 271.301,138.356 272.5,137.779C272.982,137.547 273.03,136.767 273.512,136.535ZM316.665,115.642C316.936,115.723 316.834,116.966 318.43,116.167C320.887,114.937 321.932,115.89 322.322,113.486C322.678,111.295 317.058,115.358 316.665,115.642ZM218.511,160.494C218.94,160.887 218.176,161.079 218.603,161.47C218.656,161.519 219.03,161.862 219.5,161.4C220.16,160.751 219.169,161.097 218.511,160.494ZM172.444,139.606C166.813,139.959 172.352,142.541 172.868,141.997C173.778,141.038 173.054,140.955 172.444,139.606Z" style="fill:rgb(235,235,235);"/>
        </g>
    </g>
</svg>
